<?xml version="1.0" encoding="UTF-8" standalone="no"?>
<!-- Generator: Adobe Illustrator 16.0.3, SVG Export Plug-In . SVG Version: 6.00 Build 0)  -->

<svg
   version="1.1"
   id="Capa_1"
   x="0px"
   y="0px"
   width="871.80884"
   height="323.36011"
   viewBox="0 0 871.80879 323.3601"
   enable-background="new 0 0 595.28 841.89"
   xml:space="preserve"
   sodipodi:docname="Bansí.svg"
   inkscape:version="1.1 (c68e22c387, 2021-05-23)"
   xmlns:inkscape="http://www.inkscape.org/namespaces/inkscape"
   xmlns:sodipodi="http://sodipodi.sourceforge.net/DTD/sodipodi-0.dtd"
   xmlns="http://www.w3.org/2000/svg"
   xmlns:svg="http://www.w3.org/2000/svg"><defs
   id="defs115" /><sodipodi:namedview
   id="namedview113"
   pagecolor="#ffffff"
   bordercolor="#666666"
   borderopacity="1.0"
   inkscape:pageshadow="2"
   inkscape:pageopacity="0.0"
   inkscape:pagecheckerboard="0"
   showgrid="false"
   fit-margin-top="0"
   fit-margin-left="0"
   fit-margin-right="0"
   fit-margin-bottom="0"
   inkscape:zoom="0.9882526"
   inkscape:cx="364.78528"
   inkscape:cy="122.94427"
   inkscape:window-width="1920"
   inkscape:window-height="1017"
   inkscape:window-x="1912"
   inkscape:window-y="-8"
   inkscape:window-maximized="1"
   inkscape:current-layer="Capa_1" />

<path
   fill-rule="evenodd"
   clip-rule="evenodd"
   fill="#FEFEFE"
   d="m 654.71075,160.98391 c 0,-16.93576 0.12632,-33.87473 -0.091,-50.80835 -0.0535,-4.09772 0.87029,-5.53535 5.25168,-5.40582 11.22806,0.33398 22.47539,0.22693 33.71096,0.0417 3.3516,-0.0557 4.65115,0.66369 4.63722,4.35892 -0.13486,35.32092 -0.1338,70.64291 -10e-4,105.96383 0.0139,3.60638 -1.10045,4.50557 -4.54946,4.43706 -10.34279,-0.20767 -20.69415,-0.18305 -31.03801,-0.009 -3.09471,0.0525 -5.27095,-0.84674 -7.4579,-3.07437 -15.99803,-16.29027 -32.14807,-32.43174 -48.19749,-48.67277 -1.44619,-1.46332 -2.51987,-3.29488 -3.96285,-5.21636 -2.02959,2.8121 -1.45903,4.62546 -1.46546,6.3018 -0.0525,15.34078 -0.0974,30.68369 0.0225,46.02446 0.0257,3.22423 -0.47635,4.76141 -4.32145,4.67042 -11.58773,-0.27618 -23.18939,-0.19803 -34.78248,-0.0353 -3.14501,0.0439 -4.30218,-0.65513 -4.28933,-4.0988 0.12845,-35.49861 0.12524,-70.99937 0.004,-106.49906 -0.0118,-3.38587 1.05119,-4.20477 4.26686,-4.15018 10.70032,0.18198 21.40814,0.20981 32.10739,-0.0182 3.13645,-0.0674 4.87274,1.49008 6.77388,3.43189 16.22283,16.57073 32.49811,33.08901 48.70061,49.67901 1.20105,1.22889 1.95145,2.89774 2.91272,4.36213 0.58875,-0.42711 1.17858,-0.8553 1.76839,-1.28348 z"
   id="path10-3"
   style="fill:#003579;fill-opacity:1;stroke-width:1.07046" /><path
   id="path12-1"
   d="m 313.29008,104.27355 c -12.65284,0.0561 -25.31155,0.37846 -37.95744,0.0649 -2.90737,-0.0717 -3.0379,1.36339 -3.03576,3.58352 0.0396,36.37426 0.0575,72.7469 -0.0314,109.12009 -0.006,2.82066 0.81487,3.60391 3.60235,3.58145 24.4247,-0.19698 48.85709,0.0396 73.27428,-0.49133 10.8791,-0.23764 21.61225,-2.45474 31.1918,-8.1999 15.19519,-9.1139 17.62773,-30.37635 5.06587,-42.7787 -5.67986,-5.60815 -12.79468,-8.16176 -20.80707,-10.19029 4.85882,-2.49738 9.35422,-4.58747 13.04623,-8.00545 13.69762,-12.67639 10.60655,-32.10275 -6.39558,-39.84539 -6.37245,-2.90202 -13.10772,-4.55479 -20.02932,-5.30839 -12.6234,-1.37608 -25.27114,-1.5865 -37.924,-1.53043 z m 11.13321,21.74791 c 1.19692,0.006 2.56386,0.0435 4.12713,0.0858 2.65367,0.0707 5.32556,0.42961 7.93856,0.92202 7.38511,1.38945 10.19133,4.54003 10.28018,11.27537 0.0921,6.94943 -2.87258,10.51367 -10.23628,11.92561 -5.81153,1.11435 -11.72845,0.61956 -17.59779,0.8572 -2.48775,0.1017 -3.00212,-1.02809 -2.92077,-3.19256 0.12311,-3.20603 0.0324,-6.41965 0.0314,-9.62996 -9.4e-4,-10.89609 -7.6e-4,-12.29136 8.37761,-12.24339 z m 0.49133,47.00409 c 1.26716,-0.001 2.71458,0.0257 4.36965,0.0564 3.56892,0.0674 7.10092,0.2954 10.5478,1.25025 6.61545,1.83049 9.61472,5.68575 9.59652,12.24339 -0.0193,6.32857 -2.68121,9.57444 -9.64669,11.4531 -6.93873,1.87223 -14.0652,1.67435 -21.16878,1.73322 -2.2758,0.0193 -2.60353,-1.21076 -2.57998,-3.02947 0.0471,-3.55286 0.0147,-7.10887 0.0125,-10.6628 -0.002,-11.607 -10e-4,-13.03367 8.86894,-13.04415 z"
   style="fill:#003579;fill-opacity:1;stroke-width:1.07046" /><path
   id="path14-6"
   d="m 453.30299,104.76905 c -4.00353,-0.0974 -5.87163,1.2677 -7.62076,4.76062 -17.50631,34.96338 -35.21549,69.82599 -52.83099,104.73371 -0.77073,1.52755 -2.1002,2.90488 -1.7416,5.23313 8.15691,0 16.33468,0.10351 24.50979,-0.0334 6.02777,-0.10062 13.22047,2.2441 17.73995,-0.90947 4.03992,-2.81853 5.17648,-9.79481 7.59358,-14.93837 0.14987,-0.32114 0.34813,-0.62974 0.43698,-0.96801 0.60695,-2.31754 2.16671,-2.79246 4.41146,-2.78069 16.75592,0.0814 33.51392,0.0923 50.26984,-0.009 2.52415,-0.0139 3.80285,0.75548 4.70418,3.17793 1.732,4.6565 3.96556,9.12526 5.77463,13.755 0.76753,1.96537 1.82393,2.74749 3.9306,2.73678 13.53705,-0.0642 27.07278,-0.0334 41.1333,-0.0334 -0.50419,-1.32201 -0.64695,-1.82182 -0.87603,-2.27891 -18.23315,-36.4053 -36.49697,-72.79231 -54.65412,-109.23507 -1.22782,-2.4642 -2.71908,-3.18272 -5.34813,-3.15703 -12.4773,0.12632 -24.96182,0.24858 -37.43267,-0.0544 z m 19.13239,30.75484 c 6.44846,14.38485 12.46127,27.79398 18.68707,41.68106 h -37.27796 c 6.13268,-13.75328 12.08892,-27.10246 18.59089,-41.68106 z"
   style="fill:#003579;fill-opacity:1;stroke-width:1.07046" /><path
   fill-rule="evenodd"
   clip-rule="evenodd"
   fill="#FEFEFE"
   d="m 811.76768,145.1443 c -8.31962,-4.16944 -15.49921,-9.12889 -23.77921,-11.90031 -7.3969,-2.47598 -14.79163,-3.84831 -22.52679,-1.90328 -2.89023,0.72684 -5.41973,1.83905 -6.18939,5.09646 -0.84352,3.56464 1.23531,5.78263 3.77015,7.60242 4.80637,3.44902 10.31711,5.55676 15.72936,7.80472 7.72337,3.2071 15.29902,6.68503 22.59743,10.79667 10.73885,6.04917 15.74433,15.07744 14.7306,27.37168 -0.96662,11.73653 -7.21276,19.91913 -17.58017,24.90641 -14.04016,6.75675 -29.22358,7.5703 -44.38772,7.09287 -13.17416,-0.41534 -26.1824,-2.54877 -38.71642,-7.02757 -3.14074,-1.12185 -4.36534,-2.70613 -4.26044,-6.168 0.26869,-8.88054 0.0899,-17.77393 0.0899,-27.42092 9.35904,4.64259 18.50827,8.28644 28.24946,10.32567 5.85221,1.22567 11.68729,1.22674 17.54698,0.72363 3.69952,-0.31793 7.14105,-1.57893 8.07449,-5.75373 0.91203,-4.07417 -2.30791,-5.73125 -5.10288,-7.16887 -7.10465,-3.65349 -14.33347,-7.06504 -21.53019,-10.53548 -6.93657,-3.34412 -13.44926,-7.29947 -18.86686,-12.86479 -10.49158,-10.77633 -11.27195,-25.49731 -1.81229,-37.23063 8.85164,-10.97864 21.13625,-15.54737 34.53521,-16.98928 19.33466,-2.079901 37.98208,0.54701 55.3289,10.11157 3.03047,1.67206 4.32787,3.42655 4.19834,7.01259 -0.30615,8.48019 -0.0985,16.98179 -0.0985,26.11817 z"
   id="path16-6"
   style="fill:#003579;fill-opacity:1;stroke-width:1.07046" /><path
   fill-rule="evenodd"
   clip-rule="evenodd"
   fill="#FEFEFE"
   d="m 871.75308,144.55555 c 0,24.35726 -0.0407,48.22318 0.0557,72.0891 0.0118,2.77892 -1.19034,3.20603 -3.51752,3.19426 -12.83055,-0.0642 -25.66431,-0.0921 -38.49484,0.0193 -2.78641,0.0225 -3.70379,-0.89597 -3.68989,-3.69094 0.0942,-18.89042 0.0653,-37.78298 0.0236,-56.6734 -0.004,-1.91399 0.0985,-3.44475 2.39141,-4.01744 14.27888,-3.56892 28.54169,-7.20313 43.23162,-10.92084 z"
   id="path18-5"
   style="fill:#003579;fill-opacity:1;stroke-width:1.07046" /><path
   fill-rule="evenodd"
   clip-rule="evenodd"
   fill="#FEFEFE"
   d="m 849.05074,104.78365 c 6.41743,0.001 12.83697,0.0899 19.25225,-0.0439 2.48882,-0.0514 3.48007,0.67011 3.41369,3.29916 -0.15522,6.23544 -0.19483,12.48264 0.0161,18.7138 0.0953,2.8046 -1.16252,3.54429 -3.57749,4.11913 -12.96757,3.09149 -25.92334,6.24186 -38.81169,9.64057 -3.10861,0.81997 -3.22851,-0.40464 -3.2146,-2.7543 0.0578,-9.80435 0.1092,-19.61084 -0.0268,-29.41412 -0.0385,-2.82387 0.92595,-3.68773 3.6963,-3.61494 6.4142,0.1702 12.83482,0.0546 19.25222,0.0546 z"
   id="path20-1"
   style="fill:#003579;fill-opacity:1;stroke-width:1.07046" /><path
   fill-rule="evenodd"
   clip-rule="evenodd"
   fill="#EA3F26"
   d="m 130.52513,52.126894 c -5.91291,23.26583 -11.82505,46.53165 -17.73796,69.797466 -3.85941,15.18552 -7.70135,30.37635 -11.60329,45.55123 -0.53312,2.07552 -0.56274,4.76617 -4.021168,4.35152 -0.4587,-0.0547 -1.20217,0.8741 -1.55151,1.49532 -6.28047,11.1613 -12.32627,22.76612 -14.90757,35.11897 -3.18655,15.24779 -7.11659,30.24116 -11.30331,45.18746 -5.28106,18.85507 -11.0117,37.58406 -16.59198,56.35484 -0.68272,2.29499 -1.48544,4.58086 -2.50611,6.7422 -1.15053,2.43396 -2.39827,5.00994 -5.97897,3.03239 -1.10193,-0.60906 -2.16969,0.24302 -3.14175,0.85284 -1.17484,0.7374 -2.30183,1.60163 -3.56552,2.13627 -3.70676,1.56973 -5.65621,0.0721 -5.22258,-3.90574 0.93334,-8.5466 1.913,-17.08864 2.77874,-25.64207 0.17239,-1.7072 1.2204,-4.0842 -0.1572,-5.03348 -1.75883,-1.21281 -3.7622,0.47463 -5.52711,1.44898 -1.76491,0.97434 -3.51083,2.05805 -5.39497,2.7271 -4.58543,1.6267 -8.17145,-1.05788 -7.93906,-5.92276 0.24302,-5.08209 1.91376,-9.91509 2.85848,-14.87567 0.47237,-2.47726 0.89689,-4.97805 1.09206,-7.4872 0.17315,-2.21373 -1.05257,-4.3181 -2.91924,-4.88616 -2.18335,-0.66374 -3.18959,1.62973 -3.87688,3.36882 -1.76339,4.4624 -3.3308503,9.00226 -5.0623403,13.47833 -0.61134,1.57961 -0.9265,3.62019 -3.35743,3.47286 -2.53421,-0.15265 -3.81385,-1.80212 -4.42746,-4.02725 -1.12927,-4.09787 0.0402,-8.02259 1.10952,-11.92909 8.7113903,-31.80558 17.3939303,-63.61877 26.1660803,-95.40841 13.14189,-47.62218 26.39011,-95.214746 39.45986,-142.855926 1.17787,-4.2938 3.27693,-7.65275 6.81662,-10.11102 13.38339,-9.2961497 28.041098,-14.96147973 44.519158,-15.15512973 2.25323,-0.0266 4.65074,0.0805 6.74144,0.81182 4.14496,1.45051003 8.36358,1.73530003 12.65966,1.76112003 0.12455,-0.0197 0.24909,-0.0425 0.3744,-0.0592 0.24074,-0.0326 0.35693,0.161 0.16707,0.46477 -1.04269,1.66846 -2.76887,1.54847 -4.39329,1.57126 -5.31295,0.0744 -10.64717,0.31136 -15.93506,-0.0463 -5.87114,-0.39642 -11.21675,1.34647 -16.6178,3.06961 -1.08143,0.34478 -2.146898,0.93182 -3.247308,1.0108 -6.02454,0.43211 -9.13668,4.6431397 -12.08629,9.1009797 -0.35238,0.5316 -0.66906,1.12319 -1.21813,1.43152 -6.99204,3.927 -6.34501,11.02081 -6.84775,17.38557 -0.33567,4.25508 2.73394,7.14774 7.10824,7.28747 4.29988,0.13746 8.01272,1.14978 11.72024,3.53666 3.299718,2.12412 7.617058,1.78617 11.465078,1.7968 6.20908,0.0167 12.35361,0.79284 18.53991,0.96599 1.4019,0.0425 3.44552,-0.49438 3.56248,2.03451 z"
   id="path4-4"
   style="fill:#e61f00;fill-opacity:1;stroke-width:0.759428" /><path
   fill-rule="evenodd"
   clip-rule="evenodd"
   fill="#009B7C"
   d="m 110.79899,299.61068 c 4.64618,-2.36562 8.8124,-5.31904 13.70919,-6.77334 1.33735,-0.39718 3.07189,-1.17483 2.73318,-2.69065 -0.40781,-1.82567 -2.41802,-1.01156 -3.58905,-0.81639 -6.22731,1.0389 -12.41209,2.33145 -18.62953,3.43338 -1.63276,0.2901 -3.96269,1.26748 -4.6082,-1.00473 -0.641718,-2.25626 1.49075,-3.32173 3.38097,-3.79409 3.03543,-0.75867 4.52543,-2.72103 4.69782,-5.65773 0.18226,-3.09619 -2.16892,-3.91941 -4.57176,-4.66973 -1.95096,-0.60906 -3.37869,-1.78769 -3.27844,-4.08344 0.13365,-3.03695 1.78845,-5.0593 4.61883,-5.78456 5.99645,-1.53556 12.00048,-3.14023 18.09185,-4.18368 18.3698,-3.14707 32.25289,-12.82066 41.82092,-28.60536 6.05492,-9.988 5.76785,-20.95793 0.9584,-30.93073 -4.088,-8.47446 -12.28374,-12.82446 -21.98088,-13.39327 -2.01704,-0.11847 -4.09103,-0.25972 -6.06478,0.0623 -4.85275,0.79285 -8.22536,-1.30697 -10.23937,-5.37446 -5.04032,-10.17785 -10.39504,-20.23799 -9.81332,-32.23163 0.57185,-11.7886 7.06116,-18.54067 18.82013,-18.74951 11.80986,-0.2096 23.01598,2.70356 32.87639,8.90885 12.50853,7.87374 25.46133,15.20905 36.99779,24.47787 15.5546,12.49866 24.09664,29.00026 25.27223,49.06813 0.47085,8.0507 2.04591,16.19176 -0.22555,24.14828 -5.54913,19.43528 -16.68842,34.63826 -34.41726,44.82978 -20.29266,11.6648 -42.00698,19.23933 -65.02599,23.23468 -6.4726,1.12319 -12.91938,2.39751 -19.38287,3.56855 -1.09509,0.19821 -2.4894,0.64323 -3.17213,-0.4625 -0.85283,-1.38139 0.57109,-2.25626 1.31761,-3.20402 1.10193,-1.39811 2.87291,-1.48696 4.34317,-2.17424 1.44671,-0.67741 3.32401,-1.15585 3.28148,-3.20858 -0.044,-2.12792 -2.05956,-2.28208 -3.50096,-2.93595 -1.40114,-0.63716 -2.92607,-0.72374 -4.41987,-1.0032 z"
   id="path6-5"
   style="fill:#009a80;fill-opacity:1;stroke-width:0.759428" /><path
   fill-rule="evenodd"
   clip-rule="evenodd"
   fill="#FDBC15"
   d="m 130.52513,52.126894 c -5.89392,-0.42376 -11.78632,-0.87106 -17.681,-1.26217 -4.5315,-0.29997 -9.07212,-0.46173 -13.596788,-0.82777 -1.21661,-0.0987 -2.84102,-0.3501 -3.504,-1.16269 -2.69597,-3.30503 -6.25009,-3.28908 -9.97508,-3.31642 -5.93341,-0.044 -9.56879,-3.89662 -9.41538,-9.87484 0.10784,-4.1814 1.19458,-8.21776 2.16057,-12.25868 0.19821,-0.82853 0.5802,-1.83477 1.21356,-2.29954 4.7001,-3.45236 7.7006,-8.50104 11.88276,-12.4196797 0.60299,-0.56502 1.52418,-1.03738 2.33221,-1.09813 5.00235,-0.3744 9.501948,-2.47574 14.202048,-3.90194 1.65783,-0.50199 3.47514,-0.60831 5.22563,-0.65159 8.19118,-0.20505 16.38389,-0.32428 24.57052,-0.47389 17.43873,-0.3706 34.91088,-1.19609 52.03902,3.3787 12.37563,3.30579 23.58098,9.0106097 33.70491,16.7666397 8.87468,6.79764 13.5125,16.50312 17.31192,26.65515 7.95576,21.25638 1.31077,38.79156 -14.67898,53.203976 -13.66666,12.31944 -29.06785,22.27401 -46.00461,29.68223 -1.58037,0.69032 -3.12808,1.71858 -4.97501,1.18926 -0.56501,-1.14066 0.99029,-1.62745 0.72981,-2.79621 -1.7277,0.48983 -3.38249,1.01915 -5.06842,1.41785 -1.52113,0.35997 -2.76508,-0.0311 -3.29895,-1.68972 -0.5035,-1.56139 0.42983,-2.35879 1.63049,-2.97696 1.90616,-0.98118 3.85181,-1.88566 5.73368,-2.91089 1.94565,-1.06016 1.85983,-1.99577 -0.11316,-3.11441 -4.70769,-2.66711 -9.75712,-2.19323 -14.79972,-1.84009 -1.85301,0.1291 -3.67791,0.74348 -6.13922,0.24985 3.87688,-2.45219 8.01576,-3.85713 11.01626,-8.16537 -5.93796,1.50291 -11.07473,2.85773 -16.24112,4.088 -2.94658,0.70247 -5.93113,1.38444 -8.99162,0.61742 -0.85891,-0.21492 -1.81655,-0.40554 -1.91224,-1.51506 -0.0942,-1.09358 0.73816,-1.54544 1.60239,-1.82718 1.55835,-0.5073 3.15466,-0.89917 4.7039,-1.43001 0.91587,-0.31364 2.22892,-0.5726 1.98134,-1.86439 -0.29162,-1.52493 -1.62517,-0.60375 -2.51674,-0.69867 -0.46553,-0.0494 -0.93334,-0.0775 -1.56822,-0.12759 0.44047,-1.52493 1.65783,-1.25002 2.45219,-1.4057 10.73375,-2.09754 20.26761,-6.87737 29.18101,-13.015826 3.79562,-2.61319 6.81283,-5.99644 9.01213,-10.07457 0.24377,-0.7374 0.20732,-1.2166 -0.76626,-0.83157 -12.35893,14.62582 -28.78839,20.507586 -47.77256,22.390966 1.56366,-2.73546 3.90953,-2.88355 5.92126,-3.34528 7.42037,-1.70492 14.52481,-4.173816 21.08399,-8.092456 5.3775,-3.21314 10.11861,-7.18267 13.57401,-12.43259 6.28806,-9.5536 6.12478,-14.38432 -5.62129,-21.82064 -5.46484,-3.45995 -12.02098,-4.42138 -18.35612,-5.5742 -6.70879,-1.21964 -13.46465,-2.08159 -20.26912,-2.54332 z"
   id="path8-5"
   style="fill:#f9b700;fill-opacity:1;stroke-width:0.759428" /></svg>
