<?xml version="1.0" encoding="UTF-8" standalone="no"?>
<svg
   viewBox="0 0 2531.8464 720"
   height="720"
   width="2531.8464"
   xml:space="preserve"
   id="svg2"
   version="1.1"
   sodipodi:docname="banco-multiva.svg"
   inkscape:version="1.1 (c68e22c387, 2021-05-23)"
   xmlns:inkscape="http://www.inkscape.org/namespaces/inkscape"
   xmlns:sodipodi="http://sodipodi.sourceforge.net/DTD/sodipodi-0.dtd"
   xmlns="http://www.w3.org/2000/svg"
   xmlns:svg="http://www.w3.org/2000/svg"
   xmlns:rdf="http://www.w3.org/1999/02/22-rdf-syntax-ns#"
   xmlns:cc="http://creativecommons.org/ns#"
   xmlns:dc="http://purl.org/dc/elements/1.1/"><sodipodi:namedview
     id="namedview32"
     pagecolor="#ffffff"
     bordercolor="#666666"
     borderopacity="1.0"
     inkscape:pageshadow="2"
     inkscape:pageopacity="0.0"
     inkscape:pagecheckerboard="0"
     showgrid="false"
     fit-margin-top="0"
     fit-margin-left="0"
     fit-margin-right="0"
     fit-margin-bottom="0"
     inkscape:zoom="0.098484849"
     inkscape:cx="2980.1538"
     inkscape:cy="1507.8462"
     inkscape:window-width="1920"
     inkscape:window-height="1017"
     inkscape:window-x="-8"
     inkscape:window-y="-8"
     inkscape:window-maximized="1"
     inkscape:current-layer="svg2" /><metadata
     id="metadata8"><rdf:RDF><cc:Work
         rdf:about=""><dc:format>image/svg+xml</dc:format><dc:type
           rdf:resource="http://purl.org/dc/dcmitype/StillImage" /></cc:Work></rdf:RDF></metadata><defs
     id="defs6"><clipPath
       id="clipPath18"
       clipPathUnits="userSpaceOnUse"><path
         id="path16"
         d="M 0,792 H 612 V 0 H 0 Z" /></clipPath></defs><g
     transform="matrix(6.9446521,0,0,-6.9446521,-826.33374,3344.1562)"
     id="g10"><g
       id="g12"><g
         clip-path="url(#clipPath18)"
         id="g14"><g
           transform="translate(478.3906,439.04)"
           id="g20" /><g
           transform="translate(151.9541,407.8228)"
           id="g24"><path
             id="path26"
             style="fill:#ee2722;fill-opacity:1;fill-rule:nonzero;stroke:none"
             d="m 0,0 26.654,73.053 h -5.73 L -3.079,7.404 Z" /></g><g
           transform="translate(155.915,398.3672)"
           id="g28"><path
             id="path30"
             style="fill:#ee2722;fill-opacity:1;fill-rule:nonzero;stroke:none"
             d="M 0,0 30.084,82.509 H 24.36 L -3.063,7.331 Z" /></g><g
           transform="translate(159.8701,388.9209)"
           id="g32"><path
             id="path34"
             style="fill:#ee2722;fill-opacity:1;fill-rule:nonzero;stroke:none"
             d="M 0,0 33.536,91.955 H 27.811 L -3.071,7.313 Z" /></g><g
           transform="translate(163.8223,379.4502)"
           id="g36"><path
             id="path38"
             style="fill:#ee2722;fill-opacity:1;fill-rule:nonzero;stroke:none"
             d="M 0,0 36.972,101.426 H 31.258 L -3.065,7.331 Z" /></g><g
           transform="translate(213.6914,476.7539)"
           id="g40"><path
             id="path42"
             style="fill:#ee2722;fill-opacity:1;fill-rule:nonzero;stroke:none"
             d="m 0,0 -1.896,-5.249 h 5.739 c 1.015,0 1.938,0.195 2.701,0.602 0.78,0.389 1.362,1.075 1.734,2.081 0.399,1.116 0.245,1.844 -0.492,2.194 C 7.16,-0.126 6.27,0 5.148,0 Z m -3.317,-9.15 -2.291,-6.289 H 0.12 c 1.023,0 1.88,0.135 2.547,0.405 1.243,0.527 2.107,1.492 2.649,2.956 0.433,1.234 0.237,2.09 -0.601,2.537 -0.463,0.254 -1.2,0.391 -2.217,0.391 z M 13.406,1.548 C 13.764,0.541 13.69,-0.653 13.171,-2.05 12.646,-3.488 11.861,-4.647 10.816,-5.528 10.225,-6.026 9.475,-6.475 8.54,-6.866 c 1.036,-0.447 1.685,-1.132 1.946,-2.082 0.273,-0.948 0.171,-2.098 -0.319,-3.445 -0.509,-1.415 -1.32,-2.657 -2.412,-3.757 -0.732,-0.745 -1.51,-1.362 -2.363,-1.863 -0.955,-0.576 -1.987,-0.963 -3.098,-1.185 -1.093,-0.203 -2.257,-0.321 -3.453,-0.321 h -10.628 l 8.59,23.572 H 8.196 c 2.867,-0.033 4.603,-0.879 5.21,-2.505" /></g><g
           transform="translate(235.1543,466.1484)"
           id="g44"><path
             id="path46"
             style="fill:#ee2722;fill-opacity:1;fill-rule:nonzero;stroke:none"
             d="m 0,0 h 6.032 l 0.395,9.277 z m 5.648,14.659 h 5.581 L 10.967,-8.913 H 5.632 l 0.221,4.85 h -8.688 l -3.341,-4.85 h -5.162 z" /></g><g
           transform="translate(257.646,480.8071)"
           id="g48"><path
             id="path50"
             style="fill:#ee2722;fill-opacity:1;fill-rule:nonzero;stroke:none"
             d="M 0,0 H 5.145 L 8.594,-16.446 14.576,0 h 4.572 L 10.556,-23.572 H 5.673 L 2.102,-6.787 -4.021,-23.572 h -4.554 z" /></g><g
           transform="translate(282.7759,478.353)"
           id="g52"><path
             id="path54"
             style="fill:#ee2722;fill-opacity:1;fill-rule:nonzero;stroke:none"
             d="m 0,0 c 2.609,1.957 5.367,2.937 8.314,2.937 3.915,0 6.32,-1.311 7.176,-3.91 0.463,-1.465 0.476,-2.929 0.015,-4.4 h -4.898 c 0.094,1.131 0,1.989 -0.279,2.546 -0.518,1.024 -1.627,1.542 -3.361,1.542 -1.752,0 -3.41,-0.721 -4.952,-2.175 -1.539,-1.44 -2.795,-3.49 -3.747,-6.137 -0.974,-2.645 -1.165,-4.623 -0.57,-5.935 0.593,-1.319 1.71,-1.971 3.351,-1.971 1.687,0 3.184,0.559 4.495,1.691 0.703,0.61 1.439,1.518 2.217,2.735 h 4.89 c -1.36,-2.565 -3.213,-4.663 -5.522,-6.27 -2.312,-1.611 -4.839,-2.423 -7.553,-2.423 -3.344,0 -5.584,1.085 -6.718,3.26 -1.125,2.192 -0.992,5.187 0.405,8.989 C -5.247,-5.383 -2.995,-2.208 0,0" /></g><g
           transform="translate(313.6523,462.9141)"
           id="g56"><path
             id="path58"
             style="fill:#ee2722;fill-opacity:1;fill-rule:nonzero;stroke:none"
             d="m 0,0 c 1.675,1.447 2.987,3.498 3.953,6.153 0.984,2.65 1.133,4.69 0.517,6.144 -0.611,1.451 -1.906,2.177 -3.859,2.177 -1.964,0 -3.775,-0.726 -5.466,-2.177 C -6.541,10.868 -7.87,8.811 -8.835,6.153 -9.817,3.498 -9.987,1.447 -9.343,0 c 0.661,-1.454 1.949,-2.156 3.894,-2.156 1.964,0 3.784,0.702 5.449,2.156 m 1.754,-3.579 c -2.447,-1.838 -5.356,-2.752 -8.743,-2.752 -3.355,0 -5.596,0.914 -6.706,2.752 -1.571,2.26 -1.589,5.492 -0.05,9.732 1.584,4.309 3.945,7.568 7.128,9.725 2.439,1.829 5.358,2.752 8.728,2.752 3.374,0 5.603,-0.923 6.718,-2.752 1.604,-2.157 1.604,-5.416 0.035,-9.725 -1.542,-4.24 -3.901,-7.472 -7.11,-9.732" /></g><g
           transform="translate(362.9795,444.4292)"
           id="g60"><path
             id="path62"
             style="fill:#0b335e;fill-opacity:1;fill-rule:evenodd;stroke:none"
             d="m 0,0 h 14.779 0.591 15.924 c 0,0 10.737,-37.63 12.685,-44.379 L 56.771,0 H 72.852 L 50.7,-64.988 H 36.693 L 15.37,-1.757 V -64.988 H 0 Z m -57.924,0 v -13.501 h 18.826 v -51.487 h 15.591 v 51.487 H -4.684 V 0 Z m -32.392,0 v -64.988 h 46.638 v 13.644 H -74.861 V 0 Z m -21.236,0 v -39.603 c 0,-4.091 -0.477,-7.07 -1.399,-8.873 -1.406,-3.114 -4.437,-4.595 -9.277,-4.595 -4.84,0 -7.878,1.481 -9.284,4.545 -0.948,1.853 -1.424,4.832 -1.424,8.923 V 0 h -15.657 v -39.647 c 0,-6.831 1.099,-12.256 3.256,-16.122 4.094,-7.164 11.852,-10.793 23.109,-10.793 11.249,0 19.028,3.629 23.082,10.781 2.167,3.878 3.249,9.303 3.249,16.134 V 0 Z m -62.3,0 -10.398,-29.202 v -35.777 h 29.911 V 0 Z m -52.476,0 h -17.663 v -64.979 h 29.887 v 35.777 z M 97.62,0 H 81.148 L 57.949,-64.988 h 16.227 l 4.242,12.883 h 21.285 c 0.449,-1.457 4.112,-12.883 4.112,-12.883 h 16.769 z m -14.847,-38.918 6.435,19.525 6.261,-19.525 z" /></g></g></g></g></svg>
